<svg height="512" viewBox="0 0 64 64" width="512" xmlns="http://www.w3.org/2000/svg"><g id="Important_email" data-name="Important email"><path d="m36.765 43.013 20.235 17.987v-35.885z" fill="#ff9811"/><path d="m51 45a11.94 11.94 0 0 1 -3.041 7.964l9.041 8.036v-35.885l-6 5.307z" fill="#ee8700"/><path d="m31.33 47.82 5.435-4.807-.015-.013.015.013 20.235-17.898v-.115h-54l25.67 22.82a2.011 2.011 0 0 0 2.66 0z" fill="#ffb655"/><path d="m53 17a8 8 0 1 0 8 8 8 8 0 0 0 -8-8z" fill="#d80027"/><path d="m31.33 47.82a2.011 2.011 0 0 1 -2.66 0l-5.421-4.82-20.249 18h54l-20.248-18z" fill="#ffa733"/><path d="m3 25v36l20.249-17.999z" fill="#ff9811"/><path d="m39 57h-31.5l-4.5 4h54l-9.041-8.036a11.957 11.957 0 0 1 -8.959 4.036z" fill="#ff9811"/><path d="m3 57v4l4.5-4z" fill="#ee8700"/><g fill="#231f20"><path d="m62 25a9 9 0 0 0 -17.941-1h-41.059a1 1 0 0 0 -1 1v36a1 1 0 0 0 1 1h54a1 1 0 0 0 1-1v-28.522a9 9 0 0 0 4-7.478zm-9-7a7 7 0 1 1 -7 7 7.008 7.008 0 0 1 7-7zm-31.256 25-17.744 15.773v-31.546zm1.5 1.338 4.759 4.231a3.015 3.015 0 0 0 3.986 0l4.758-4.228 17.623 15.659h-48.74zm7.419 2.731a1.011 1.011 0 0 1 -1.334 0l-23.699-21.069h38.429a8.989 8.989 0 0 0 3.441 6.109zm25.337 11.704-17.743-15.773 11.037-9.809a8.872 8.872 0 0 0 6.706.284z"/><path d="m53 27a1 1 0 0 0 1-1v-6a1 1 0 0 0 -2 0v6a1 1 0 0 0 1 1z"/><path d="m53 31a1 1 0 0 0 1-1v-1a1 1 0 0 0 -2 0v1a1 1 0 0 0 1 1z"/></g></g></svg>